<svg width="212" height="187" viewBox="0 0 212 187" fill="none" xmlns="http://www.w3.org/2000/svg">
<path d="M77.5 141.5C81.5 139.5 95 150.5 114 150.5C123.5 150.812 123.5 142.5 139 144.5C154.5 146.5 155.83 147.009 168 153.5C183 161.5 193.761 159.93 184 177.5C176.5 191 155.5 184 143 177.5C133.855 172.745 126 169.5 116.5 169.5C108.438 169.5 83.7585 173.135 67 179C47 186 40.5 167.5 40.5 158C40.5 150.894 42 143 53 148.5C59.7082 151.854 73.5 143.5 77.5 141.5Z" fill="#834C0E" stroke="black" stroke-width="3"/>
<path d="M25.687 76.4319C23.2012 77.2605 17.8152 66.9029 17.8152 49.0878C17.8152 42.0446 18.1651 26.301 21.1297 26.301C22.3726 26.301 21.544 36.2443 21.1297 50.3307C20.7153 64.4171 28.1728 75.6033 25.687 76.4319Z" fill="#FFEA00" stroke="black" stroke-width="3"/>
<path d="M14.3654 20.7542C12.4391 18.9072 7.18996 17.5264 4.80615 17.0669C5.0139 19.498 5.94042 24.7632 7.98443 26.3752C10.0284 27.9873 14.9272 29.119 17.121 29.4833C17.0051 27.3432 16.2917 22.6011 14.3654 20.7542Z" fill="#FFEA00" stroke="black" stroke-width="3"/>
<path d="M12.7082 32.3547C10.7819 30.5078 5.53273 29.1269 3.14892 28.6674C3.35668 31.0985 4.28319 36.3638 6.3272 37.9758C8.37121 39.5878 13.2699 40.7195 15.4638 41.0839C15.3479 38.9438 14.6345 34.2017 12.7082 32.3547Z" fill="#FFEA00" stroke="black" stroke-width="3"/>
<path d="M12.1797 42.5619C9.99982 41.0224 4.60353 40.4387 2.17786 40.3393C2.74535 42.7123 4.44565 47.7809 6.70693 49.0705C8.96821 50.3602 13.9808 50.7498 16.2045 50.7833C15.7712 48.6843 14.3595 44.1014 12.1797 42.5619Z" fill="#FFEA00" stroke="black" stroke-width="3"/>
<path d="M30.8804 22.122C28.472 23.2715 25.3255 27.6941 24.0533 29.7618C26.401 30.4265 31.654 31.4202 33.8843 30.0776C36.1145 28.735 38.9041 24.5522 40.0202 22.6286C37.9771 21.9808 33.2889 20.9726 30.8804 22.122Z" fill="#FFEA00" stroke="black" stroke-width="3"/>
<path d="M30.8804 33.7226C28.472 34.872 25.3255 39.2947 24.0533 41.3624C26.401 42.027 31.654 43.0207 33.8843 41.6781C36.1145 40.3356 38.9041 36.1527 40.0202 34.2291C37.9771 33.5814 33.2889 32.5732 30.8804 33.7226Z" fill="#FFEA00" stroke="black" stroke-width="3"/>
<path d="M30.8804 45.3231C28.472 46.4726 25.3255 50.8953 24.0533 52.9629C26.401 53.6276 31.654 54.6213 33.8843 53.2787C36.1145 51.9361 38.9041 47.7533 40.0202 45.8297C37.9771 45.1819 33.2889 44.1737 30.8804 45.3231Z" fill="#FFEA00" stroke="black" stroke-width="3"/>
<path d="M18.3174 14.0622C18.1431 16.7252 20.464 21.6318 21.6461 23.7522C23.3734 22.0288 26.8075 17.9314 26.7262 15.3295C26.6448 12.7276 24.3589 8.2496 23.2261 6.33583C21.6624 7.80171 18.4916 11.3992 18.3174 14.0622Z" fill="#FFEA00" stroke="black" stroke-width="3"/>
<path d="M112 1.5C122.383 1.5 131.724 2.83142 138.418 4.94531C141.774 6.00505 144.381 7.23554 146.116 8.53125C147.879 9.84721 148.5 11.0355 148.5 12C148.5 12.9645 147.879 14.1528 146.116 15.4688C144.381 16.7645 141.774 17.9949 138.418 19.0547C131.724 21.1686 122.383 22.5 112 22.5C101.617 22.5 92.2762 21.1686 85.582 19.0547C82.2262 17.9949 79.6193 16.7645 77.8838 15.4688C76.1212 14.1528 75.5 12.9645 75.5 12C75.5 11.0355 76.1212 9.84721 77.8838 8.53125C79.6193 7.23554 82.2262 6.00505 85.582 4.94531C92.2762 2.83142 101.617 1.5 112 1.5Z" fill="#FFEA00" stroke="black" stroke-width="3"/>
<rect x="74" y="12" width="76" height="12" fill="#FFEA00"/>
<path d="M111 15.5C127.635 15.5 142.621 19.3163 153.396 25.4102C164.215 31.5297 170.5 39.7516 170.5 48.5C170.5 57.2484 164.215 65.4703 153.396 71.5898C142.621 77.6837 127.635 81.5 111 81.5C94.3655 81.5 79.3792 77.6837 68.6045 71.5898C57.7845 65.4703 51.5 57.2484 51.5 48.5C51.5 39.7516 57.7845 31.5297 68.6045 25.4102C79.3792 19.3163 94.3655 15.5 111 15.5Z" fill="#FFEA00" stroke="black" stroke-width="3"/>
<path d="M32.3299 95.0408C27.3299 89.0408 31 78 41 73C48.2656 69 80.3299 93.0408 82.8299 93.0408C85.3299 93.0408 81.3299 85.0408 86.3299 81.5408C91.3299 78.0408 117.726 90.4804 129.33 85.0408C145.33 77.5408 132.33 96.1317 136.33 95.0408C152.83 90.5408 173.83 75.5408 179.83 77.5408C185.83 79.5408 198.83 91.0408 195.33 95.0408C191.83 99.0408 161.33 120.041 157.83 122.541C154.33 125.041 156.33 132.041 157.83 142.041C159.33 152.041 134.83 165.041 111.83 164.541C88.8299 164.041 68.8299 153.541 68.3299 142.041C67.8299 130.541 72.8299 120.541 66.3299 120.041C59.8299 119.541 37.3299 101.041 32.3299 95.0408Z" fill="#1A661D" stroke="black" stroke-width="3"/>
<path d="M111 20.5C136.328 20.5 156.5 38.3706 156.5 60C156.5 81.6294 136.328 99.5 111 99.5C85.6721 99.5 65.5 81.6294 65.5 60C65.5 38.3706 85.6721 20.5 111 20.5Z" fill="#E2E2E2" stroke="black" stroke-width="3"/>
<path d="M111.585 77C108.096 77.5733 103.628 68.488 102.055 65.0203C102.524 63.5101 110.085 66.3522 111.585 66.3207C113.084 66.2892 119.978 61.1435 120.499 62.1328C121.02 63.1221 115.073 76.4267 111.585 77Z" fill="black" stroke="black" stroke-width="3"/>
<rect x="127.99" y="47.9196" width="10.5289" height="1.40385" transform="rotate(-41.1556 127.99 47.9196)" fill="black" stroke="black" stroke-width="1.40385"/>
<rect x="134.92" y="55.847" width="10.5289" height="1.40385" transform="rotate(-131.156 134.92 55.847)" fill="black" stroke="black" stroke-width="1.40385"/>
<rect x="98.811" y="50.1068" width="10.5289" height="1.40385" transform="rotate(140.451 98.811 50.1068)" fill="black" stroke="black" stroke-width="1.40385"/>
<rect x="92.1068" y="41.9882" width="10.5289" height="1.40385" transform="rotate(50.4509 92.1068 41.9882)" fill="black" stroke="black" stroke-width="1.40385"/>
<path d="M204 92.5C196.5 95.5 189 88 185.5 83C184 81.0237 176.5 74 183.5 68C190.5 62 200 67.5 205.5 76.5C211 85.5 211.5 89.5 204 92.5Z" fill="#E2E2E2" stroke="black" stroke-width="3"/>
<path d="M15.59 88.2352C10.1638 85.4412 11.8166 78.9206 20.2454 64.8776C21.738 62.3462 22.7831 57.8912 33.1463 61.4766C43.5095 65.0619 36.0357 81.9924 31.891 86.9996C27.7463 92.0067 21.0162 91.0292 15.59 88.2352Z" fill="#E2E2E2" stroke="black" stroke-width="3"/>
<line x1="75.5" y1="12" x2="75.5" y2="23" stroke="black" stroke-width="3"/>
<line x1="148.5" y1="12" x2="148.5" y2="23" stroke="black" stroke-width="3"/>
</svg>
